<svg id="Layer_1" data-name="Layer 1" xmlns="http://www.w3.org/2000/svg" viewBox="0 0 86.2 86.49"><defs><style>.cls-1{fill:#fff;}.cls-2,.cls-3{fill:#231f20;}.cls-3{font-size:39.75px;stroke:#231f20;stroke-miterlimit:10;stroke-width:0.25px;font-family:Didot-Bold, Didot;font-weight:700;letter-spacing:-0.08em;}.cls-4{letter-spacing:-0.01em;}</style></defs><title>Untitled-1</title><circle class="cls-1" cx="42.7" cy="43.5" r="42.05"/><path class="cls-2" d="M196.2,204c0,.4.21.25.25.31C196.37,203.66,196.15,204,196.2,204Z" transform="translate(-110.25 -160.83)"/><polygon class="cls-2" points="84.9 36.67 85 36.77 84.65 35.85 84.9 36.67"/><path class="cls-2" d="M193.79,191.53c-.18.66.62,2.13.77,3.23l0,.19.4.41C194.55,194.08,194,192.46,193.79,191.53Z" transform="translate(-110.25 -160.83)"/><path class="cls-2" d="M193.39,188.18c-.06.24-.36-.63.23.74l0-.14Z" transform="translate(-110.25 -160.83)"/><path class="cls-2" d="M193.6,188.78c.24.61,0-.45,0,0Z" transform="translate(-110.25 -160.83)"/><path class="cls-2" d="M192.35,186l.48.73c0-.19-.32-.9-.14-.67C192.24,185.31,192.25,185.51,192.35,186Z" transform="translate(-110.25 -160.83)"/><path class="cls-2" d="M191.76,185.4l.24.38A.62.62,0,0,0,191.76,185.4Z" transform="translate(-110.25 -160.83)"/><path class="cls-2" d="M192.51,186.58l-.51-.8c0,.14-.1.2.22.37C192.09,186.13,192.27,186.25,192.51,186.58Z" transform="translate(-110.25 -160.83)"/><path class="cls-2" d="M192.69,187.09c.15.46.31,1.07-.12.32C193.19,188.92,193.37,188.59,192.69,187.09Z" transform="translate(-110.25 -160.83)"/><path class="cls-2" d="M193.34,191.35a4.55,4.55,0,0,1,.09.63l.25.5a4,4,0,0,1-.16-.69C193.46,191.53,193.38,191.32,193.34,191.35Z" transform="translate(-110.25 -160.83)"/><path class="cls-2" d="M189.94,181.2c-.09,0,0,.36-.07.47l.4.49C190.15,181.86,189.87,181.3,189.94,181.2Z" transform="translate(-110.25 -160.83)"/><path class="cls-2" d="M189.87,181.67l-.61-.75C189.69,181.65,189.82,181.75,189.87,181.67Z" transform="translate(-110.25 -160.83)"/><polygon class="cls-2" points="81.09 24.61 82 25.89 80.95 24.34 81.09 24.61"/><polygon class="cls-2" points="77.63 17.36 78.09 17.69 77.3 17.07 77.63 17.36"/><path class="cls-2" d="M186.37,176.29c.38.2-.19-.57.17-.31a9.14,9.14,0,0,0-1.37-1.12A6.68,6.68,0,0,1,186.37,176.29Z" transform="translate(-110.25 -160.83)"/><path class="cls-2" d="M184.48,174.35c.21.17.44.33.69.51A4.4,4.4,0,0,0,184.48,174.35Z" transform="translate(-110.25 -160.83)"/><path class="cls-2" d="M188.4,179.56a1.36,1.36,0,0,0-.27-.73l.05.43Z" transform="translate(-110.25 -160.83)"/><path class="cls-2" d="M188.18,179.27h0l-.48-.66Z" transform="translate(-110.25 -160.83)"/><path class="cls-2" d="M188.45,179.64l0-.08A.07.07,0,0,0,188.45,179.64Z" transform="translate(-110.25 -160.83)"/><path class="cls-2" d="M190.37,183.16c-.4-.42-1.1-1.33-.68-.29C190,183.13,189.78,182.54,190.37,183.16Z" transform="translate(-110.25 -160.83)"/><path class="cls-2" d="M188.51,180.16a9.25,9.25,0,0,1,.49.87c0-.05,0-.25.21,0C189,180.71,188.76,180.42,188.51,180.16Z" transform="translate(-110.25 -160.83)"/><polygon class="cls-2" points="77.91 18.97 78.26 19.33 78.05 19.02 77.91 18.97"/><path class="cls-2" d="M185.5,175.77a8.8,8.8,0,0,1-1.06-1c.36.45.74.91,1.12,1.33C185.66,176.11,185.92,176.22,185.5,175.77Z" transform="translate(-110.25 -160.83)"/><path class="cls-2" d="M186.84,177.44l-.07-.07C186.79,177.43,186.82,177.47,186.84,177.44Z" transform="translate(-110.25 -160.83)"/><polygon class="cls-2" points="70.36 10.29 70.4 10.37 70.44 10.36 70.36 10.29"/><path class="cls-2" d="M185.6,176.2a2.44,2.44,0,0,0,.68.64c-.23-.23-.47-.47-.72-.74C185.51,176.09,185.49,176.1,185.6,176.2Z" transform="translate(-110.25 -160.83)"/><path class="cls-2" d="M183.38,173.34c.14.19.3.39.45.62C183.74,173.74,183.49,173.35,183.38,173.34Z" transform="translate(-110.25 -160.83)"/><path class="cls-2" d="M186.73,177.22l.05,0C186.73,177.12,186.72,177.15,186.73,177.22Z" transform="translate(-110.25 -160.83)"/><path class="cls-2" d="M186.73,177.22a3.64,3.64,0,0,0-.45-.38c.18.2.34.38.49.53A1.13,1.13,0,0,1,186.73,177.22Z" transform="translate(-110.25 -160.83)"/><path class="cls-2" d="M178.5,171.22a2.65,2.65,0,0,1,1.77,1.21c.79.52.78-.38.38-1.23-.08.06-.11.08-1-.41.25.25,1.5,1.61.77,1.19a4.61,4.61,0,0,1-1.21-1.2c.28.51-1.54-.7-1.52-.24l1,.57C178.67,171.17,178.29,171,178.5,171.22Z" transform="translate(-110.25 -160.83)"/><path class="cls-2" d="M182,172.49l.32.26a7.91,7.91,0,0,1-.87-1.16c-.57-.38-.72-.42-.8-.4l1.47,1.37Z" transform="translate(-110.25 -160.83)"/><path class="cls-2" d="M183.7,174c-.35-.11-1.16-.67-.88-.11.87.81.71.47,1.27.92-1.34-1.38.46.33-.4-.79.29.26.53.51.75.74-.22-.28-.42-.55-.61-.81l0,0h0c0,.08,0,.11,0,0l0,0a.17.17,0,0,1-.12,0c-.34-.44,0-.1.12,0h0c-.45-.46-1-.83-1.49-1.25C182.64,173.06,183.05,173.37,183.7,174Z" transform="translate(-110.25 -160.83)"/><path class="cls-2" d="M188.76,182.24c0-.06,0-.07,0-.08S188.65,182,188.76,182.24Z" transform="translate(-110.25 -160.83)"/><path class="cls-2" d="M188.47,181.5a1.7,1.7,0,0,1,.44.55c.15.37-.08.06-.13.11.18.2.62.73.27,0l-.1-.1a5.36,5.36,0,0,1-.53-1.59A3,3,0,0,0,188.47,181.5Z" transform="translate(-110.25 -160.83)"/><path class="cls-2" d="M186.22,177.64a12.13,12.13,0,0,0-1.12-1.15l.41.72.06-.1C186.11,177.83,186.07,177.61,186.22,177.64Z" transform="translate(-110.25 -160.83)"/><path class="cls-2" d="M180.54,170.91l.31,0a9.48,9.48,0,0,0-.94-.33Z" transform="translate(-110.25 -160.83)"/><polygon class="cls-2" points="68.59 8.83 68.77 8.72 68.25 8.48 68.59 8.83"/><path class="cls-2" d="M117.83,225.13l.28.35Z" transform="translate(-110.25 -160.83)"/><path class="cls-2" d="M116.3,222.26l-.13,0C116.29,222.35,116.35,222.38,116.3,222.26Z" transform="translate(-110.25 -160.83)"/><path class="cls-2" d="M130.2,167.55c-.69.21-1.52.37-1.33.52l.31.07A4.92,4.92,0,0,1,130.2,167.55Z" transform="translate(-110.25 -160.83)"/><path class="cls-2" d="M111.78,196.07l.09-.18-.09-.48A4.84,4.84,0,0,0,111.78,196.07Z" transform="translate(-110.25 -160.83)"/><path class="cls-2" d="M112.59,196.71l-.27.83A7.4,7.4,0,0,0,112.59,196.71Z" transform="translate(-110.25 -160.83)"/><path class="cls-2" d="M130,237.84a4.46,4.46,0,0,0,.55.11C129.86,237.5,130.1,237.78,130,237.84Z" transform="translate(-110.25 -160.83)"/><path class="cls-2" d="M159.1,161.58a12.94,12.94,0,0,0-1.46-.35C158.34,161.46,158.89,161.73,159.1,161.58Z" transform="translate(-110.25 -160.83)"/><path class="cls-2" d="M115.15,225.15c.18.23.28.31.32.28C115.28,225.19,115.16,225.07,115.15,225.15Z" transform="translate(-110.25 -160.83)"/><path class="cls-2" d="M155.91,161.12l.32.06a7.67,7.67,0,0,1,1.41,0A3.57,3.57,0,0,0,155.91,161.12Z" transform="translate(-110.25 -160.83)"/><path class="cls-2" d="M186.79,227.16l.1-.11S186.83,227.07,186.79,227.16Z" transform="translate(-110.25 -160.83)"/><path class="cls-2" d="M195.53,210.06c0,.19-.07.51-.11.8A5.33,5.33,0,0,0,195.53,210.06Z" transform="translate(-110.25 -160.83)"/><path class="cls-2" d="M171.64,165.2c.41.18.08,0,0,0Z" transform="translate(-110.25 -160.83)"/><path class="cls-2" d="M173.2,166.9c-.1,0-.18,0-.21,0A.3.3,0,0,1,173.2,166.9Z" transform="translate(-110.25 -160.83)"/><path class="cls-2" d="M151.51,162.39h0C151.6,162.43,151.58,162.42,151.51,162.39Z" transform="translate(-110.25 -160.83)"/><path class="cls-2" d="M172.21,165.58c-.14-.1-.31-.2-.49-.31C171.8,165.33,171.94,165.42,172.21,165.58Z" transform="translate(-110.25 -160.83)"/><path class="cls-2" d="M172.17,165.45l.34.19C172.58,165.63,172.55,165.59,172.17,165.45Z" transform="translate(-110.25 -160.83)"/><path class="cls-2" d="M171.08,164.94l.64.33c-.07-.05-.1-.08-.08-.07Z" transform="translate(-110.25 -160.83)"/><path class="cls-2" d="M158.38,245.33h.09C158.89,245.18,158.7,245.22,158.38,245.33Z" transform="translate(-110.25 -160.83)"/><path class="cls-2" d="M122.9,176.45l0,0-.05,0Z" transform="translate(-110.25 -160.83)"/><path class="cls-2" d="M122,177.68a2.53,2.53,0,0,1,.88-1.23l-.8,0Z" transform="translate(-110.25 -160.83)"/><path class="cls-2" d="M122.46,231.37l-.57-.91c1.11.73,1.63,1.48,1.18.57-.29.16-1-.54-1.67-1.35s-1.26-1.62-1.58-1.48l-.3-.65c.12.17.17.17.28.33-.55-1.26-1-.54-1.85-2.1-.27-.55-.41-1-.12-.65l-.86-1.08c-.19-.36,0-.32.15,0-.36-.59-.64-1.23-1-1.84h0c-.22-.22-.66-.76-.87-1-.15-.52.18.21.2.06-.22-.33-.45-.65-.65-1,0-.26.12-.17.28.06a5.4,5.4,0,0,1,.57,1,1.3,1.3,0,0,0-.31-1.15,4.92,4.92,0,0,1-.71-2l.45,1c.12-.8-.3-1.54-.49-2.75,0,.3.27,2.49-.32,1.37a4.63,4.63,0,0,0-.56-1.38c.23-.08,0-.7-.21-1.5l.32,0c-.31-.84-.45-.73-.72-1.2-.22-1,0-1.22.15-1.49-.19-1.58-.23,1.15-.57-.69a10.85,10.85,0,0,0-.25-1.8c-.13-.59-.34-1.2-.45-2,.07-.93.21.15.28-.19l-.29-.8c0-.21.07-.15.12-.11-.14-.69-.33,0-.47-1.14-.17-.14-.11-.71,0-1.41a5,5,0,0,0,.15-2.2c.11-.33.19.18.32.08-.17-1.87-.15-1.6-.26-3.16l.41-1.26c-.38.91-.48-.34-.54-1.47-.17.32-.31.6-.39.78a12.79,12.79,0,0,1,.16-1.75c.11-.2.17,0,.23.31v-.33c.27-.58.37-.22.43.25l-.35.56c.13.46.28.9.48.84a2.64,2.64,0,0,1,0-.57c0,.12.07.2.11.15s0-.24,0-.53l.44-.3-.11-.12.77-2.1,0-1.23.13-1.25a15,15,0,0,1,.71-3.12c0,.68.34.29.61.45-.58.51-.56,1.9-1.08,3.1.27-.63.35-.44.34-.26l.53-2.31c.21.15.34-.4.72-.89-.66.21.45-1.72.73-2.65.18,0,.23.31-.31,1.34.9-1,.15-1.8,1.12-2.72-.15.25-.25.37-.23.5.21-.64,1.17-2,1.09-1.57l-.15.24c.26-.39.58-.9.9-1.44s.76-1.06,1.1-1.57a6.43,6.43,0,0,0,1.16-2.18,2,2,0,0,1,.23.66c.36-1.15.78-2.3,1.21-3.49.07.47,1.46.24.56,1.54a11.23,11.23,0,0,0,1.33-1.43c-.27.17-.94.15-.65-.16a14.84,14.84,0,0,0,2-1.09c-.39.25-.4-.52.16-1,0,.14.41.39.26.61a12.81,12.81,0,0,1,1-1.6c-.31.36.23.42.65.31-.22,0,1.25-.92,1.61-1.26l-.69.36c1.66-1.18,1.2-1.82,3-2.88-.16.23-.16.92.76.45a8.72,8.72,0,0,1,.86-1.45,8.06,8.06,0,0,1,1.91-1.79h.39a10.28,10.28,0,0,1,1.23-.74c-.35.32-1,1-1.62,1.7s-1.36,1.36-1.86,1.81c.74-.23.28.07,1.3-.43.43,0-.45.47-.75.62l2.41-1.05c-.12-.12.3-.42.73-.71s.9-.49.8-.6a20.16,20.16,0,0,0-2.49,1.48c-.13-.12.14-.52.67-1a5.07,5.07,0,0,1,1-.71,9.26,9.26,0,0,1,1.28-.53c.5-.05-.13.68,0,.77a6.71,6.71,0,0,1,1.79-.8l-.69.44a4.33,4.33,0,0,0,1.28-.61,3,3,0,0,1,1.51-.4c.43-.09,1.36.1,1.38-.11-.76-.2-1.21-1.31-.8-1.71l1.31-.12a6.69,6.69,0,0,1,1.6.06c.77.18-.95.87-.29,1,0-.1.38-.27.54-.33.47,0-.14.31.84.12.11-.36,2-.28.42-.36a10.17,10.17,0,0,1,2.18-.22c-.39-.2,1-.8,2-.95-.06.09.17.19.28.24l1.37,0c.42,0,.8.08,1.18.12.76.08,1.51.16,2.45.21.17.08,1.06.24.66.36a3.42,3.42,0,0,1,1.11,0c1.07.46-1.28-.15-.48.33.09-.19,1.51-.05,2.34,0-.2-.34-1.88-.35-2.71-.35,0-.42,1.53-.64,3.56-.53,1.59.19.62.41.91.4a8.41,8.41,0,0,0,2.7.38,3.8,3.8,0,0,1,2.27.58c.85.59-.13.52,0,.77a8.38,8.38,0,0,1-1.47-.57,7.83,7.83,0,0,0-1.2-.43l1,.39a5.81,5.81,0,0,1-1.71-.36c.75.36,4.8,1.45,6.76,2.67.4.09,1.07.31.82.07l-.67-.28c-.51-.49,1.36.32.58-.17.47.15,1,.28,1.53.48q.41.13.84.33a9.14,9.14,0,0,1,.83.55l.07.4a2.56,2.56,0,0,0-1.06-.75c.57.18,1.6,1.45,2.34,1.44l-.72-.69a9.87,9.87,0,0,1,3.11,1.56c-.28-.58-.24-.14-.76-1,.41.76-2.72-1.68-1.91-.64-.57-.8-1.22-1-2.12-1.84,0,.11.29.36-.64-.14l-.24,0-.06,0,0,0s-.05,0,0,0a1.56,1.56,0,0,1,.41.37,22.66,22.66,0,0,1-2.6-.87c-.54-.32.28,0,0-.24a4.79,4.79,0,0,0-.84-.16c0-.24-1.4-.92,0-.54l-1.24-.46a8.62,8.62,0,0,0-2.33-.92c-.59-.2-1.59-.15-1-.19l-2-.38v-.06a17.26,17.26,0,0,0-3.11-.45c-1.08-.1-2.17-.33-3.32-.55a16.36,16.36,0,0,1-2.54-.06l-.22-.21a14.52,14.52,0,0,0-3,.11,2.91,2.91,0,0,0-1.11-.18,6,6,0,0,0-1.6.13c-1.14.2-2.34.46-3.12.54v.25a24.17,24.17,0,0,0-3.28,1l.14.19c-1.06.4-2.82.73-4.5,1.37a1.88,1.88,0,0,1,.84-.32,6.92,6.92,0,0,0-1.61.41,14.11,14.11,0,0,0-1.47.82,16.81,16.81,0,0,1-2.8,1.47,3.52,3.52,0,0,1-1,.61l.1-.08-.18.1-.63.25a4.19,4.19,0,0,0,.54-.19c-.31.2-.79.52-1.23.85l-.33-.07-.11.07c-.52.21-.31.32,0,.32a2.87,2.87,0,0,0-.52.54c-.58,0-1.09,1-1.82,1a7.8,7.8,0,0,1-1.13,1.11c-.47.51-.9,1-.87,1.29,0,0-.19.06,0-.14a5.82,5.82,0,0,0-1.3,1.21l-.41,0a11.23,11.23,0,0,0-.65,1.24c-.68.47-1,.65-.62-.11-1,1.7-1,1.27-1.8,2.74l-.11-.19c-.35.49-.71,1.41-1,1.59-1.21.77-3.75,5.4-5.4,8.42.42-.18.17.14-.1.57s-.55,1-.36,1.11c-.2.14-.43.56-.35,0-.46,1.7-1.18,2.41-1.07,3.7-.19.16-.11-.42-.23-.26a1.65,1.65,0,0,1-.15.73c-.12.15,0-.28,0-.57-.43,1.76-.06,2,.29,2.25a3.89,3.89,0,0,0-.38,1,2.49,2.49,0,0,0,.07.93c-.17.29-.39.79-.26-.32-.11.61-.79,3.75-.44,3.84a3,3,0,0,0,0,1c-.09,1.39-.12,1.52-.16,2.88l.07-.37c.33.54.08,1.13.18,2.23l0,0a6.85,6.85,0,0,0,0,1.8,3,3,0,0,1,0,.52c0,.26,0,.64,0,1.26l.22-.16c.55.16,0,2.22.45,3.62l.05-.54c.27.74-.16,2.29,0,3.11,0,.18-.14-.25-.24-.48.24,2.12.38.18.84,1.67-.08.33-.54-.23-.25.79.08.55,1.52,2.72,1.81,4.14,0-.34,0-.67.37-.06.54,1,.83,2.95,1.71,3.62,0,.14,0,.2,0,.22a22.62,22.62,0,0,0,2,2.58c-.22,1.12,3.42,4,2.91,4.36l1.78,1.91h-.1a6.07,6.07,0,0,0,2.28,1.73c.25.29,0,.16-.06.17a9.64,9.64,0,0,0,3.82,2.75l0,.32c.26.11.9.73,1.82,1.35.46.32,1,.67,1.49,1a7.23,7.23,0,0,0,1.67.83.49.49,0,0,1-.29,0,15.51,15.51,0,0,1,2,.91,20.51,20.51,0,0,0,1.95,1c1.28.57,2.41,1,3,.74a14.65,14.65,0,0,0,1.76.27c-2.19-.63.43-.29-.43-.66.87.16,2.15.83,1.08.6l-.15-.08c-.51.34,2.69.89,2.58,1.13a49,49,0,0,0,13.09.82,5.48,5.48,0,0,1-.52-.31c.48,0,1-.13,1.45-.19s.56.21-.49.35a2.9,2.9,0,0,0,1.74-.52c2.06-.16-.73.55-.1.46l.85-.16h-.2c.33-.13.5-.23.75-.33s.57-.18,1.18-.34c.79-.13.45.12.76.05,0,0,.11,0,.47-.11l1.82-.43-.81-.09c.77-.33,1.69-.44.77-.52a14.22,14.22,0,0,0,3.88-1.08c1.54-.65,2.95-1.44,3.34-1.52q.34-.26.72-.48l.73-.51c.5-.33,1.05-.65,1.65-1-.33.13-.67,0,.37-.63,0,.38.53.2,1.15-.21a7,7,0,0,1,1.9-1c-.45.13.23-.4.85-.91s1.09-1.09.45-.79c.78-.64.21.15.88-.25.4-.45.86-.89,1.35-1.34l.75-.67.73-.74a22.29,22.29,0,0,0,2.92-3.25c0-.09-.44.22-.17-.37l1.3-1c.3-.52,0-.69.76-1.45-.14.09-.35.22-.17-.14a30.12,30.12,0,0,0,4.11-7.85c.49-1.42,1.06-2.81,1.42-4.27.21-.72.43-1.43.67-2.15s.38-1.44.61-2.16c-.29.77-.23.23-.14-.38-.1.39-.21,0-.34,0,.22-.8.49-1.6.67-2.42-.3-.48.12-2.66-.19-2.93l0,.78c-.32-1.05-.9,1.4-1.37,1.21a2.27,2.27,0,0,1,0,1,10.91,10.91,0,0,1-.34,1.14,5.61,5.61,0,0,0-.34,2.67c-.16.39-.1-.37-.25-.18a3.38,3.38,0,0,1-.31,2.06l0-.13a18.52,18.52,0,0,1-1.07,3.46l-.7,1.59a15.46,15.46,0,0,1-.91,1.94l.32-.12a5.45,5.45,0,0,1-.67,1c0,.89.89-1.78.93-1a9.64,9.64,0,0,0-1.51,2.54,5.58,5.58,0,0,1-1.62,2.18c-.57.93.4-.13-.17.81l-.28.16,0,.34c-.39.6-.81.75-.91.71a5.42,5.42,0,0,0,.37-.56,22.74,22.74,0,0,0-1.75,2.33l.7-.78a22.33,22.33,0,0,1-1.37,1.88l-1.64,1.81-.81.91-.87.83c-.57.55-1.1,1.1-1.59,1.64l.24-.06a5.42,5.42,0,0,1-.91.85c-.25.18-.45.3-.65.43a12.94,12.94,0,0,0-1.77,1.25l0-.07a4.76,4.76,0,0,1-1.42,1.1c.46-.42-1.11.38-.5-.15-1.93,1.41-.9.79-2.09,1.91H172a4.56,4.56,0,0,1-1.5,1.06c.84-.58-.81.08.1-.6a9.78,9.78,0,0,0-1.55.62c-.45.2-.84.38-1.18.55a3.21,3.21,0,0,1-1.88.51c-.93.89,2.16-.48,1.58-.15.58,0-.78.69-1.55.92s-1.53-.23-3.48.3c.2-.05.2-.09.4-.14a4.46,4.46,0,0,0-1.11.3,2.64,2.64,0,0,1-1.25.2c-.47.39-1.2.17-1.29.58l1.84-.37a12.41,12.41,0,0,1-3.73.91,5.33,5.33,0,0,1,1-.39c-.52-.06-1,.25-1.51.15.12-.35,2.25-.41,3.32-.86-.57-.09-2.07.6-1.57.09a2.43,2.43,0,0,1-1.43.45,5.15,5.15,0,0,0-1.89.22l.08-.24a5.23,5.23,0,0,1-1.06.19L155,245c-1.1.31-2.13-.08-3.18,0,1.1.06,1.23.13,1.19.22s-.23.22.24.28c-2.77.24-1.57-.67-4.62-.72.41,0,1.54.23.88.31a5.32,5.32,0,0,1-1.67-.44c-2-.26.28.29-.6.3-.64-.39-1,0-1.91-.08l0-.24c-.57-.11-.89-.17-1.09-.19a.54.54,0,0,0-.36.07c-.15.09-.27.18-1.27-.18l.94-.1-1.08-.19.29-.21a8.7,8.7,0,0,1-1.36-.2,6,6,0,0,1-1.26-.46c.2.25-.28.36-1.26,0-.61-.37.45-.08-.94-.55a1.55,1.55,0,0,1,1.29.35c.09-.05.35,0,.44-.08a11.64,11.64,0,0,0-2.25-.87,4.06,4.06,0,0,1,.51.25c-.35-.07-.71-.13-1.05-.21l-1-.31c-.27-.23,0-.18.27-.13-.4-.16-.71-.19-1.29-.45.23-.1.29-.3,1.12,0l-1.89-.67c-.09-.13-.81-.66-.55-.61-.87-.69-2.53-1-3.67-2a1.48,1.48,0,0,1-.49-.24c-.54-.43-1-.88-1.55-1.31-.26-.22-.55-.43-.84-.65a10.21,10.21,0,0,0-.93-.69l-.45-.89c-1-.8.63,1.18-1-.17-1.2-.95-.21-.59-.52-1a7.85,7.85,0,0,1-2.51-2.38A12.31,12.31,0,0,1,122.46,231.37Zm-8.13-13.54c.15.28.51.8.45,1.06C114.4,218.66,114.43,218.35,114.33,217.83Zm-1.53-24a2,2,0,0,1-.29,1A4.27,4.27,0,0,1,112.8,193.85ZM167,163.52h0C166.35,163.18,166.58,163.3,167,163.52Zm1.38.61c.16,0,.16,0,.11-.07a2.25,2.25,0,0,1-.79-.24C167.81,163.92,168,164,168.42,164.13Zm-5.17,81.93H163C163.57,245.84,163.41,245.94,163.25,246.06Z" transform="translate(-110.25 -160.83)"/><path class="cls-2" d="M112.49,196.62a.22.22,0,0,1-.14.11C112.37,196.86,112.41,196.87,112.49,196.62Z" transform="translate(-110.25 -160.83)"/><path class="cls-2" d="M129.88,237.81l0,0H130Z" transform="translate(-110.25 -160.83)"/><path class="cls-2" d="M145.86,163.92a2.26,2.26,0,0,1-.59,0C145.27,164,145.41,164,145.86,163.92Z" transform="translate(-110.25 -160.83)"/><path class="cls-2" d="M175.77,167.32l-.87-.45a3.92,3.92,0,0,1,.71.52S175.51,167.17,175.77,167.32Z" transform="translate(-110.25 -160.83)"/><path class="cls-2" d="M181.46,173.52c.12.07.22.19.34.26l0-.1C181.41,173.29,181.05,173.08,181.46,173.52Z" transform="translate(-110.25 -160.83)"/><path class="cls-2" d="M176.1,168.47c0,.22.53.42,1.07.81l-.09-.07C177.4,169.09,176.77,168.74,176.1,168.47Z" transform="translate(-110.25 -160.83)"/><path class="cls-2" d="M177.3,169.37c.17.11.34.24.5.36C177.92,169.69,177.61,169.56,177.3,169.37Z" transform="translate(-110.25 -160.83)"/><path class="cls-2" d="M170.25,164.71c.27.19.29-.15.42,0C171.1,164.62,168.6,164.1,170.25,164.71Z" transform="translate(-110.25 -160.83)"/><polygon class="cls-2" points="65.94 8.47 65.88 8.14 65.45 8.12 65.94 8.47"/><path class="cls-2" d="M171.76,166.56l.92.52s.14,0,.3,0A5.55,5.55,0,0,0,171.76,166.56Z" transform="translate(-110.25 -160.83)"/><path class="cls-2" d="M173,167.13a7.45,7.45,0,0,0,.75.4A5.1,5.1,0,0,0,173,167.13Z" transform="translate(-110.25 -160.83)"/><polygon class="cls-2" points="64.68 7.79 64.44 7.58 63.81 7.18 64.68 7.79"/><path class="cls-2" d="M161.06,162.85l-1.16-.11c-.13.07.17.17.6.2S161.22,163,161.06,162.85Z" transform="translate(-110.25 -160.83)"/><path class="cls-2" d="M164.26,164.34a1.25,1.25,0,0,1-.43-.31l-.12.29Z" transform="translate(-110.25 -160.83)"/><path class="cls-2" d="M161,163.61c-.13.07-1.66,0-.25.19C160.91,163.72,162,163.87,161,163.61Z" transform="translate(-110.25 -160.83)"/><polygon class="cls-2" points="33.72 2.58 34.01 2.5 33.86 2.01 33.72 2.58"/><path class="cls-2" d="M130.7,170.28c1.19-.58.1-.42,1.2-.92.2-.26-.9.41-.68.15C130.6,170,130.2,170.19,130.7,170.28Z" transform="translate(-110.25 -160.83)"/><path class="cls-2" d="M131.22,169.51a3.73,3.73,0,0,0,.31-.28A2,2,0,0,0,131.22,169.51Z" transform="translate(-110.25 -160.83)"/><polygon class="cls-2" points="85.85 45.98 86 45.09 85.8 45.66 85.85 45.98"/><path class="cls-2" d="M195.81,205.08l.33-.21-.26-.54A2.26,2.26,0,0,1,195.81,205.08Z" transform="translate(-110.25 -160.83)"/><path class="cls-2" d="M114.23,215.4l-.09,0a1.51,1.51,0,0,0,.08.73Z" transform="translate(-110.25 -160.83)"/><polygon class="cls-2" points="8.4 65.05 8.31 64.87 8.25 65.35 8.4 65.05"/><path class="cls-2" d="M124.92,233.07a7.93,7.93,0,0,1-.89-.85C124.62,232.83,124.75,233.4,124.92,233.07Z" transform="translate(-110.25 -160.83)"/><text class="cls-3" transform="translate(10.75 56.6)">S<tspan class="cls-4" x="22.54" y="0">U.</tspan></text></svg>